<?xml version="1.0" standalone="no"?>
<!DOCTYPE svg PUBLIC "-//W3C//DTD SVG 20010904//EN"
 "http://www.w3.org/TR/2001/REC-SVG-20010904/DTD/svg10.dtd">
<svg version="1.0" xmlns="http://www.w3.org/2000/svg"
 width="200.000000pt" height="200.000000pt" viewBox="0 0 200.000000 200.000000"
 preserveAspectRatio="xMidYMid meet">

<g transform="translate(0.000000,200.000000) scale(0.100000,-0.100000)"
fill="#000000" stroke="none">
<path d="M706 1978 c-13 -19 -16 -57 -16 -219 0 -215 2 -209 -59 -209 -15 0
-32 -5 -39 -12 -9 -9 -12 -168 -12 -653 0 -446 -3 -644 -11 -652 -14 -14 8
-51 35 -59 11 -4 42 -29 70 -57 88 -88 204 -123 384 -115 120 5 189 33 260
106 27 27 62 57 79 65 34 18 49 45 33 61 -7 7 -10 225 -10 655 0 356 -4 651
-8 658 -4 6 -28 13 -52 15 l-45 3 -3 199 c-2 168 -5 203 -19 218 -15 17 -39
18 -294 18 -276 0 -278 0 -293 -22z m582 -45 c3 -39 1 -42 -25 -45 -17 -2 -29
-10 -31 -20 -3 -14 3 -18 27 -18 30 0 31 -2 31 -43 0 -48 -13 -67 -46 -67 -29
0 -46 -23 -42 -57 2 -23 10 -29 43 -39 35 -9 40 -15 43 -43 2 -18 -1 -31 -6
-27 -5 3 -67 10 -138 16 -123 9 -316 2 -401 -16 l-33 -6 0 199 c0 110 3 203 7
206 4 4 133 6 287 5 l281 -3 3 -42z m112 -414 c0 -10 -4 -19 -10 -19 -24 0
-50 -41 -50 -79 0 -45 11 -57 40 -41 20 11 20 10 20 -560 0 -521 -1 -570 -16
-570 -9 0 -36 -17 -59 -39 -121 -112 -421 -134 -587 -44 -28 15 -60 40 -71 55
-12 17 -30 28 -44 28 l-23 0 0 570 0 570 25 -10 c20 -8 27 -6 35 9 16 30 1 79
-31 102 -29 20 -38 39 -19 39 6 0 19 -9 29 -19 44 -44 208 -66 431 -58 221 8
328 35 314 79 -4 14 -2 18 5 14 6 -4 11 -16 11 -27z"/>
<path d="M1367 1353 c-40 -62 -433 -76 -641 -23 -44 11 -81 20 -83 20 -2 0 -2
-46 -1 -101 l3 -102 35 -28 c19 -15 62 -35 95 -44 81 -22 325 -32 407 -16 69
14 186 65 194 85 8 20 0 222 -9 209z"/>
<path d="M1342 1083 c-59 -39 -170 -58 -342 -58 -168 0 -236 11 -309 51 -24
13 -45 24 -47 24 -2 0 -4 -56 -4 -124 l0 -124 34 -30 c42 -37 106 -58 216 -72
115 -14 202 -12 283 5 75 16 183 68 198 97 5 10 8 71 7 136 l-3 118 -33 -23z"/>
<path d="M1316 779 c-76 -41 -153 -54 -326 -54 -163 0 -235 13 -308 56 -18 10
-35 19 -38 19 -2 0 -4 -52 -4 -115 0 -132 7 -151 74 -190 82 -48 292 -76 421
-55 77 12 178 56 213 93 21 23 22 31 20 148 l-3 124 -49 -26z"/>
<path d="M1328 490 c-71 -52 -135 -65 -323 -65 -186 0 -248 12 -319 60 -20 14
-39 25 -41 25 -3 0 -5 -54 -5 -119 l0 -119 51 -46 c77 -69 155 -91 329 -91
162 1 220 19 301 93 l50 47 -3 121 -3 121 -37 -27z"/>
</g>
</svg>
